# xmcd CD database file
#
# Track frame offsets:
#	150
#	22697
#	43703
#	72634
#	97509
#	123821
#	151938
#	187546
#	209806
#
# Disc length: 3247 seconds
#
# Revision: 0
# Processed by: cddbd v1.5.2PL0 Copyright (c) Steve Scherf et al.
# Submitted via: CDex 1.70beta2
#
DISCID=660cad09
DTITLE=Ernesto Dmitruk Quinteto - Por la noche
DYEAR=2003
DGENRE=Jazz
TTITLE0=Siete Años
TTITLE1=Por la noche
TTITLE2=Candombele
TTITLE3=Valijitas
TTITLE4=Trío
TTITLE5=Son
TTITLE6=Tres Días
TTITLE7=Lula
TTITLE8=Icarus
EXTD=YEAR: 2003
EXTT0=
EXTT1=
EXTT2=
EXTT3=
EXTT4=
EXTT5=
EXTT6=
EXTT7=
EXTT8=
PLAYORDER=
